<?xml version="1.0" encoding="iso-8859-1"?>
<!-- Generator: Adobe Illustrator 19.0.0, SVG Export Plug-In . SVG Version: 6.00 Build 0)  -->
<svg version="1.1" id="Layer_1" xmlns="http://www.w3.org/2000/svg" xmlns:xlink="http://www.w3.org/1999/xlink" x="0px" y="0px"
	 viewBox="0 0 512 512" style="enable-background:new 0 0 512 512;" xml:space="preserve">
<path style="fill:#B3404A;" d="M256,415.494c-64.27,0-116.555-52.287-116.555-116.555c0-7.824,6.342-14.166,14.166-14.166
	c7.824,0,14.166,6.342,14.166,14.166c0,48.646,39.577,88.223,88.223,88.223s88.223-39.577,88.223-88.223
	c0-7.824,6.342-14.166,14.166-14.166s14.166,6.342,14.166,14.166C372.555,363.209,320.268,415.494,256,415.494z"/>
<path style="fill:#F4B2B0;" d="M298.909,157.28l-65.114-63.357v-70.15c0-8.524,10.292-12.81,16.342-6.805L391.531,157.28
	L250.137,297.593c-6.05,6.005-16.342,1.718-16.342-6.805v-70.15L298.909,157.28z"/>
<path style="fill:#B3404A;" d="M454.894,284.774c-7.824,0-14.166,6.342-14.166,14.166c0,101.859-82.869,184.728-184.728,184.728
	S71.272,400.799,71.272,298.94c0-94.935,71.989-173.354,164.241-183.581l43.083,41.921l-54.679,53.204
	c-2.741,2.666-4.287,6.328-4.287,10.153v70.15c0,13.108,10.687,23.773,23.821,23.773c6.254,0,12.173-2.455,16.665-6.912
	l141.395-140.312c2.68-2.659,4.187-6.28,4.187-10.055c0-3.775-1.507-7.396-4.187-10.055L260.117,6.912
	C255.625,2.455,249.706,0,243.452,0c-13.136,0-23.823,10.664-23.823,23.773v65.23C119.415,106.313,42.94,193.855,42.94,298.94
	C42.94,416.422,138.518,512,256,512s213.06-95.578,213.06-213.06C469.06,291.116,462.718,284.774,454.894,284.774z M247.962,34.766
	L371.421,157.28L247.962,279.795v-53.176l60.826-59.185c2.741-2.666,4.287-6.328,4.287-10.153s-1.546-7.487-4.287-10.153
	l-60.826-59.185L247.962,34.766L247.962,34.766z"/>
<g>
</g>
<g>
</g>
<g>
</g>
<g>
</g>
<g>
</g>
<g>
</g>
<g>
</g>
<g>
</g>
<g>
</g>
<g>
</g>
<g>
</g>
<g>
</g>
<g>
</g>
<g>
</g>
<g>
</g>
</svg>
